<svg width="28" height="28" viewBox="0 0 28 28" fill="none" xmlns="http://www.w3.org/2000/svg">
<path d="M18.25 10.25C18.25 12.5972 16.3472 14.5 14 14.5V16C17.1756 16 19.75 13.4256 19.75 10.25H18.25ZM14 14.5C11.6528 14.5 9.75 12.5972 9.75 10.25H8.25C8.25 13.4256 10.8244 16 14 16V14.5ZM9.75 10.25C9.75 7.90279 11.6528 6 14 6V4.5C10.8244 4.5 8.25 7.07436 8.25 10.25H9.75ZM14 6C16.3472 6 18.25 7.90279 18.25 10.25H19.75C19.75 7.07436 17.1756 4.5 14 4.5V6ZM10.25 19.75H17.75V18.25H10.25V19.75ZM2.25 14C2.25 7.51065 7.51065 2.25 14 2.25V0.75C6.68223 0.75 0.75 6.68223 0.75 14H2.25ZM14 2.25C20.4893 2.25 25.75 7.51065 25.75 14H27.25C27.25 6.68223 21.3178 0.75 14 0.75V2.25ZM25.75 14C25.75 17.3323 24.3639 20.3395 22.1347 22.4788L23.1733 23.561C25.685 21.1506 27.25 17.7574 27.25 14H25.75ZM22.1347 22.4788C20.0228 24.5056 17.1575 25.75 14 25.75V27.25C17.5599 27.25 20.7933 25.8451 23.1733 23.561L22.1347 22.4788ZM17.75 19.75C19.8112 19.75 21.5312 21.2181 21.9184 23.1661L23.3896 22.8737C22.8657 20.2374 20.5407 18.25 17.75 18.25V19.75ZM14 25.75C10.8425 25.75 7.97724 24.5056 5.86532 22.4788L4.82671 23.561C7.20672 25.8451 10.4401 27.25 14 27.25V25.75ZM5.86532 22.4788C3.63615 20.3395 2.25 17.3323 2.25 14H0.75C0.75 17.7574 2.31501 21.1506 4.82671 23.561L5.86532 22.4788ZM10.25 18.25C7.45925 18.25 5.13435 20.2374 4.6104 22.8737L6.08163 23.1661C6.46877 21.2181 8.18877 19.75 10.25 19.75V18.25Z" fill="#023047"/>
</svg>
